<?xml version="1.0" ?><svg xmlns="http://www.w3.org/2000/svg" xmlns:xlink="http://www.w3.org/1999/xlink" version="1.1" viewBox="0 0 512 512" style="enable-background:new 0 0 512 512;" xml:space="preserve"><g id="_x34_5_x2C__City_Poster_x2C__Billboard_x2C__Advertising_x2C__Poster_x2C__Announcement"><g><g><path d="M446,361h-20V21h20c5.522,0,10-4.478,10-10s-4.478-10-10-10C418.306,1,81.108,1,66,1c-5.522,0-10,4.478-10,10     s4.478,10,10,10h20v340H66c-5.522,0-10,4.478-10,10s4.478,10,10,10c8.663,0,172.181,0,180,0v46.073L186.64,491H161     c-5.522,0-10,4.478-10,10s4.478,10,10,10h30c2.78,0,5.436-1.158,7.328-3.195L256,445.697l57.672,62.108     C315.564,509.842,318.22,511,321,511h30c5.522,0,10-4.478,10-10s-4.478-10-10-10h-25.64L266,427.073V381c7.853,0,171.408,0,180,0     c5.522,0,10-4.478,10-10S451.522,361,446,361z M106,361V21h300v340H106z"/><path d="M386,51c0-5.522-4.478-10-10-10H136c-5.522,0-10,4.478-10,10c0.01,68.827-0.024,200.081,0.043,200.861     c0.446,5.23,4.859,9.139,9.957,9.139c54.129,0,185.082,0,240,0c5.465,0,9.987-4.423,9.999-9.985C386,250.513,386,51.1,386,51z      M366,61v156.973l-61.68-92.52c-4.039-6.057-12.967-5.888-16.801,0.247l-40.876,65.402l-26.839-49.844     c-3.517-6.533-12.661-7.063-16.942-1.071L146,219.795V61H366z"/><path d="M376,281H136c-5.522,0-10,4.478-10,10s4.478,10,10,10h240c5.522,0,10-4.478,10-10S381.522,281,376,281z"/><path d="M376,321H136c-5.522,0-10,4.478-10,10s4.478,10,10,10h240c5.522,0,10-4.478,10-10S381.522,321,376,321z"/></g></g></g><g id="Layer_1"/></svg>